<svg width="41" height="41" viewBox="0 0 41 41" fill="none" xmlns="http://www.w3.org/2000/svg">
<g clip-path="url(#clip0_34_1277)">
<path d="M15.6 20.4801H4.22397V20.4641C4.22397 17.3361 5.77597 14.4401 8.37597 12.7041L15.512 7.94412C16.448 7.32012 16.696 6.06412 16.072 5.12812C15.68 4.54412 15.04 4.22412 14.376 4.22412C13.992 4.22412 13.6 4.33612 13.248 4.56812L6.11197 9.32812C2.39197 11.8081 0.159973 15.9761 0.159973 20.4641V35.9201C0.159973 36.3681 0.519973 36.7361 0.975973 36.7361H15.6C16.048 36.7361 16.416 36.3761 16.416 35.9201V21.2961C16.416 20.8401 16.056 20.4801 15.6 20.4801ZM39.984 20.4801H28.608V20.4641C28.608 17.3361 30.16 14.4401 32.76 12.7041L39.896 7.94412C40.832 7.32012 41.08 6.06412 40.456 5.12812C40.064 4.54412 39.424 4.22412 38.76 4.22412C38.376 4.22412 37.984 4.33612 37.632 4.56812L30.496 9.32812C26.76 11.8161 24.536 15.9761 24.536 20.4641V35.9201C24.536 36.3681 24.896 36.7361 25.352 36.7361H39.984C40.432 36.7361 40.8 36.3761 40.8 35.9201V21.2961C40.8 20.8401 40.432 20.4801 39.984 20.4801Z" fill="#2454FF"/>
</g>
<defs>
<clipPath id="clip0_34_1277">
<rect width="40.96" height="40.96" fill="white"/>
</clipPath>
</defs>
</svg>
