<svg width="16" height="16" viewBox="0 0 16 16" fill="none" xmlns="http://www.w3.org/2000/svg">
<path d="M6.10209 3.60557C6.94651 2.09073 7.36871 1.33331 7.99998 1.33331C8.63125 1.33331 9.05345 2.09073 9.89785 3.60556L10.1163 3.99747C10.3563 4.42793 10.4762 4.64317 10.6634 4.78519C10.8504 4.9272 11.0834 4.97991 11.5494 5.08535L11.9736 5.18133C13.6134 5.55235 14.4333 5.73786 14.6284 6.36513C14.8234 6.99238 14.2645 7.64605 13.1466 8.95325L12.8574 9.29145C12.5397 9.66291 12.3808 9.84865 12.3094 10.0784C12.238 10.3082 12.262 10.556 12.31 11.0517L12.3537 11.5029C12.5227 13.247 12.6072 14.1191 12.0966 14.5068C11.5858 14.8944 10.8182 14.541 9.28285 13.8341L8.88565 13.6512C8.44938 13.4503 8.23125 13.3498 7.99998 13.3498C7.76871 13.3498 7.55058 13.4503 7.11431 13.6512L6.71711 13.8341C5.18177 14.541 4.4141 14.8944 3.90341 14.5068C3.39273 14.1191 3.47723 13.247 3.64625 11.5029L3.68997 11.0517C3.738 10.556 3.76201 10.3082 3.69055 10.0784C3.6191 9.84865 3.46027 9.66291 3.14259 9.29145L2.85338 8.95325C1.73548 7.64605 1.17653 6.99238 1.37159 6.36513C1.56666 5.73786 2.38655 5.55235 4.02634 5.18133L4.45057 5.08535C4.91655 4.97991 5.14953 4.9272 5.33661 4.78519C5.52368 4.64317 5.64367 4.42794 5.88363 3.99747L6.10209 3.60557Z" fill="#FCFCFC"/>
</svg>
