<svg width="16" height="16" viewBox="0 0 16 16" fill="none" xmlns="http://www.w3.org/2000/svg">
<path d="M6.10211 3.60557C6.94654 2.09073 7.36874 1.33331 8 1.33331C8.63127 1.33331 9.05347 2.09073 9.89787 3.60556L10.1163 3.99747C10.3563 4.42793 10.4763 4.64317 10.6634 4.78519C10.8505 4.9272 11.0834 4.97991 11.5494 5.08535L11.9737 5.18133C13.6134 5.55235 14.4333 5.73786 14.6284 6.36513C14.8235 6.99238 14.2645 7.64605 13.1466 8.95325L12.8574 9.29145C12.5397 9.66291 12.3809 9.84865 12.3094 10.0784C12.238 10.3082 12.262 10.556 12.31 11.0517L12.3537 11.5029C12.5227 13.247 12.6073 14.1191 12.0966 14.5068C11.5859 14.8944 10.8182 14.541 9.28287 13.8341L8.88567 13.6512C8.4494 13.4503 8.23127 13.3498 8 13.3498C7.76874 13.3498 7.5506 13.4503 7.11434 13.6512L6.71714 13.8341C5.18179 14.541 4.41412 14.8944 3.90344 14.5068C3.39275 14.1191 3.47726 13.247 3.64627 11.5029L3.68999 11.0517C3.73802 10.556 3.76204 10.3082 3.69058 10.0784C3.61912 9.84865 3.46029 9.66291 3.14262 9.29145L2.8534 8.95325C1.7355 7.64605 1.17655 6.99238 1.37162 6.36513C1.56668 5.73786 2.38658 5.55235 4.02636 5.18133L4.4506 5.08535C4.91657 4.97991 5.14956 4.9272 5.33663 4.78519C5.5237 4.64317 5.64369 4.42794 5.88365 3.99747L6.10211 3.60557Z" fill="#048756"/>
</svg>
